<?xml version="1.0" encoding="UTF-8" standalone="no"?>
<svg
   width="102.63497"
   height="100.11677"
   viewBox="0 0 19.244057 18.771894"
   version="1.1"
   id="svg1"
   xml:space="preserve"
   xmlns="http://www.w3.org/2000/svg"
   xmlns:svg="http://www.w3.org/2000/svg"><defs
     id="defs1" /><g
     id="layer1"
     transform="translate(-2.4059057,-0.72488915)"><path
       fill="#000000"
       d="m 10.539092,2.1921907 -0.529719,-0.527234 0.350658,-0.35066 0.527233,0.5297204 z M 12.279957,0.72488917 V 1.4709747 H 11.782568 V 0.72488917 Z M 14.053155,1.6649567 13.523434,2.1921907 13.17526,1.8440171 13.702495,1.3142967 Z m -3.887104,1.4225365 v 0.49739 H 9.4199634 v -0.49739 z m 3.730425,0 h 0.746086 v 0.49739 h -0.746086 z m -3.357384,2.3626034 h 2.984342 a 0.49739029,0.49739029 0 0 1 0.49739,0.4973904 h -3.979122 a 0.49739029,0.49739029 0 0 1 0.49739,-0.4973904 m 1.492172,-3.7304267 a 1.4921709,1.4921709 0 0 1 1.49217,1.4921709 V 5.2014013 H 10.539092 V 3.2118408 a 1.4921709,1.4921709 0 0 1 1.492172,-1.4921709"
       id="path1-5"
       style="fill:#ffc107;fill-opacity:1;stroke-width:0.248695" /><path
       fill="#000000"
       d="M 21.642189,3.6357827 A 9.7983643,9.7983643 0 0 0 12.028246,10.077686 9.7983643,9.7983643 0 0 0 2.4143029,3.6357827 9.8063826,9.8063826 0 0 0 6.6800387,12.13839 5.2600057,5.2600057 0 0 1 8.9612466,16.486715 v 3.01007 h 6.1339994 v -3.01007 a 5.2600057,5.2600057 0 0 1 2.280405,-4.348325 9.7983643,9.7983643 0 0 0 4.265736,-8.5026073 z"
       id="path1"
       style="fill:#ffc107;fill-opacity:1;stroke-width:0.80183" /></g></svg>
